<?xml version="1.0" encoding="utf-8"?>
<!-- Generator: Adobe Illustrator 22.1.0, SVG Export Plug-In . SVG Version: 6.00 Build 0)  -->
<svg version="1.1" id="Layer_1" xmlns="http://www.w3.org/2000/svg" xmlns:xlink="http://www.w3.org/1999/xlink" x="0px" y="0px"
	 viewBox="0 0 70.8 34" style="enable-background:new 0 0 70.8 34;" xml:space="preserve">
<style type="text/css">
	.st0{fill:#313C52;}
</style>
<title>GM_Logo</title>
<path id="Menu" class="st0" d="M9.6,4.3h-2C7.4,2.9,6.2,1.9,4.8,2C3.4,1.9,2.1,3,2,4.4c0,0.1,0,0.2,0,0.3V9
	c-0.1,1.4,1.1,2.6,2.5,2.7c0.1,0,0.2,0,0.3,0c1.4,0.1,2.7-1,2.7-2.4c0-0.1,0-0.2,0-0.3V8.1H4.8v-2h4.8V9c0.1,2.5-1.7,4.6-4.2,4.7
	c-0.2,0-0.4,0-0.6,0C2.4,13.9,0.2,12.1,0,9.6C0,9.4,0,9.2,0,9V4.7C-0.2,2.3,1.7,0.1,4.2,0c0.2,0,0.4,0,0.6,0
	c2.4-0.2,4.6,1.6,4.8,4.1C9.6,4.2,9.6,4.2,9.6,4.3 M11.5,4.7c-0.1-2.5,1.7-4.6,4.2-4.7c0.2,0,0.4,0,0.6,0c2.5-0.2,4.6,1.7,4.8,4.1
	c0,0.2,0,0.4,0,0.6V9c0.1,2.5-1.7,4.6-4.2,4.7c-0.2,0-0.4,0-0.6,0c-2.5,0.2-4.6-1.7-4.8-4.1c0-0.2,0-0.4,0-0.6V4.7z M19.1,4.7
	c0-1.5-1.2-2.8-2.8-2.8s-2.8,1.2-2.8,2.8V9c0,1.5,1.2,2.8,2.8,2.8s2.8-1.2,2.8-2.8V4.7z M23.1,4.7C23,2.3,24.9,0.1,27.3,0
	c0.2,0,0.4,0,0.6,0c2.5-0.2,4.6,1.7,4.8,4.1c0,0.2,0,0.4,0,0.6V9c0.1,2.5-1.7,4.6-4.2,4.7c-0.2,0-0.4,0-0.6,0
	c-2.5,0.2-4.6-1.7-4.8-4.1c0-0.2,0-0.4,0-0.6V4.7z M30.7,4.7c0-1.5-1.2-2.8-2.8-2.8s-2.8,1.2-2.8,2.8V9c0,1.5,1.2,2.8,2.8,2.8
	s2.8-1.2,2.8-2.8V4.7z M35.1,13.5V0.2h4.8c2.5-0.2,4.6,1.7,4.8,4.1c0,0.2,0,0.4,0,0.6v3.9c0.1,2.5-1.7,4.6-4.2,4.7
	c-0.2,0-0.4,0-0.6,0H35.1z M39.9,11.5c1.4,0.1,2.7-1,2.7-2.5c0-0.1,0-0.2,0-0.2V4.9c0.1-1.4-1.1-2.7-2.5-2.7c-0.1,0-0.2,0-0.2,0
	h-2.8v9.3L39.9,11.5z M9.6,20.4h2.1v13.4h-2v-9.3l-2.8,5.7H5.2l-2.8-5.7v9.3h-2V20.4h2L6,27.8L9.6,20.4z M14,25
	c-0.1-2.5,1.7-4.6,4.2-4.7c0.2,0,0.4,0,0.6,0c2.5-0.2,4.6,1.7,4.8,4.1c0,0.2,0,0.4,0,0.6v4.3c0.1,2.5-1.8,4.6-4.2,4.7
	c-0.2,0-0.4,0-0.5,0c-2.5,0.2-4.6-1.7-4.8-4.1c0-0.2,0-0.4,0-0.6L14,25z M21.6,25c-0.1-1.5-1.4-2.7-2.9-2.6
	c-1.4,0.1-2.5,1.2-2.6,2.6v4.3c0.1,1.5,1.4,2.7,2.9,2.6c1.4-0.1,2.5-1.2,2.6-2.6V25z M35.6,33.8h-2l-5.5-9.6v9.6H26V20.4h2.1
	l5.5,9.6v-9.6h2V33.8z M38.5,33.8V20.4h4.8c2.5-0.2,4.6,1.7,4.8,4.1c0,0.2,0,0.4,0,0.6v3.9c0.1,2.5-1.7,4.6-4.2,4.7
	c-0.2,0-0.4,0-0.6,0H38.5z M43.2,31.8c1.4,0.1,2.7-1,2.7-2.5c0-0.1,0-0.2,0-0.2v-3.9c0.1-1.4-1.1-2.7-2.5-2.7c-0.1,0-0.2,0-0.2,0
	h-2.8v9.3L43.2,31.8z M57.2,30.6h-5l-1.1,3.2H49l4.7-13.4h2.1l4.7,13.4h-2.1L57.2,30.6z M56.6,28.7l-1.8-5.3l-1.8,5.3H56.6z
	 M66.1,28.7v5.1h-2v-5.1l-4.7-8.3h2.2l3.5,6.1l3.5-6.1h2.2L66.1,28.7z M28.3,0.4c-0.2,0-0.4,0.2-0.4,0.4c0,0,0,0,0,0h0.9
	C28.8,0.6,28.6,0.4,28.3,0.4 M27.9,0.7c0-0.1-0.1-0.1-0.1-0.1v0.3C27.8,0.9,27.9,0.8,27.9,0.7"/>
</svg>
